<svg xmlns="http://www.w3.org/2000/svg" viewBox="0 0 263.27 180.07"><defs><style>.cls-1{isolation:isolate;}.cls-2{opacity:0.3;}.cls-3{fill:#42515d;}.cls-4{fill:#242a31;}.cls-5{fill:#2e80a9;}.cls-29,.cls-6{fill:#fff;}.cls-7{fill:#1c1916;}.cls-8{fill:#3a242a;}.cls-9{fill:#483338;}.cls-10{fill:#911e15;}.cls-11{fill:#f18858;}.cls-12{fill:#f6a86b;}.cls-13{fill:#342e29;}.cls-14{fill:#096084;}.cls-15{fill:#211f1f;}.cls-16{fill:#722610;}.cls-17{fill:#c24b76;}.cls-18{fill:#a62f60;}.cls-19{fill:#2c2620;opacity:0.2;mix-blend-mode:multiply;}.cls-20{fill:#6b2e1f;}.cls-21{fill:#3f4353;}.cls-22{fill:#2e3542;}.cls-23{fill:#434d5f;}.cls-24{fill:#0b0c0e;}.cls-25{opacity:0.7;}.cls-26{fill:#e0e0e0;}.cls-27{fill:none;stroke:#3e4357;stroke-width:0.2px;}.cls-27,.cls-29{stroke-miterlimit:10;}.cls-28{fill:#3e4357;}.cls-29{stroke:#fff;stroke-width:0.21px;}</style></defs><g class="cls-1"><g id="Layer_26" data-name="Layer 26"><g class="cls-2"><ellipse class="cls-3" cx="137.77" cy="172.77" rx="53.05" ry="2.6"/></g><path class="cls-4" d="M83.12,86.4A4,4,0,0,1,81,79l2.84-1.73a4,4,0,1,1,4.21,6.85l-2.83,1.73A4.05,4.05,0,0,1,83.12,86.4ZM86,78.74A2,2,0,0,0,85,79l-2.84,1.73a1.92,1.92,0,0,0,1,3.55,1.87,1.87,0,0,0,1-.28L87,82.29a1.92,1.92,0,0,0-1-3.55Z"/><path class="cls-4" d="M82.66,100.1a4,4,0,0,1-4-4V92.77a4,4,0,0,1,8.07,0v3.31A4,4,0,0,1,82.66,100.1Zm0-9.24a1.93,1.93,0,0,0-1.93,1.91v3.31a1.93,1.93,0,0,0,3.85,0V92.77A1.92,1.92,0,0,0,82.66,90.86Z"/><path class="cls-4" d="M82.66,114a4,4,0,0,1-4-4v-3.31a4,4,0,0,1,8.07,0V110A4,4,0,0,1,82.66,114Zm0-9.25a1.93,1.93,0,0,0-1.93,1.92V110a1.93,1.93,0,0,0,3.85,0v-3.31A1.92,1.92,0,0,0,82.66,104.72Z"/><path class="cls-4" d="M82.66,127.67a4,4,0,0,1-4-4v-3.31a4,4,0,0,1,8.07,0v3.31A4,4,0,0,1,82.66,127.67Zm0-9.24a1.93,1.93,0,0,0-1.93,1.91v3.31a1.93,1.93,0,0,0,3.85,0v-3.31A1.92,1.92,0,0,0,82.66,118.43Z"/><path class="cls-4" d="M83.92,141.5A4,4,0,0,1,80,138.32l-.69-3.24a4,4,0,0,1,3.11-4.77,4.69,4.69,0,0,1,.84-.08,4,4,0,0,1,3.94,3.18l.69,3.24a4,4,0,0,1-4,4.85Zm-.68-9.17a1.75,1.75,0,0,0-.4,0,1.92,1.92,0,0,0-1.49,2.27l.69,3.24a1.94,1.94,0,0,0,1.88,1.52,1.75,1.75,0,0,0,.4,0,1.92,1.92,0,0,0,1.49-2.27l-.69-3.24A1.94,1.94,0,0,0,83.24,132.33Z"/><path class="cls-4" d="M91.66,152.35a4,4,0,0,1-2.48-.85l-2.26-1.77a4,4,0,0,1,5-6.34l2.26,1.77a4,4,0,0,1-2.48,7.19Zm-2.26-7.71a1.92,1.92,0,0,0-1.18,3.43l2.26,1.77a1.88,1.88,0,0,0,1.18.41,1.92,1.92,0,0,0,1.19-3.43l-2.26-1.77A1.91,1.91,0,0,0,89.4,144.64Z"/><path class="cls-5" d="M187.7,44.54,165.87,7.63a5.94,5.94,0,0,0-5.06-2.92,5.88,5.88,0,0,0-3.09.82L75.36,54.23a6,6,0,0,0-2.09,8.14L95.1,99.29a6,6,0,0,0,8.15,2.09l10.21-6h0l72.16-42.66A6,6,0,0,0,187.7,44.54Z"/><polygon class="cls-6" points="172.49 55.51 148.93 15.66 148.92 15.67 148.92 15.66 88.81 51.2 112.38 91.05 116.01 88.9 116.01 88.91 172.49 55.51"/><path class="cls-7" d="M132.32,164.26a12.08,12.08,0,0,0-1.41,3.2c-.11.66-.18,2.39-.18,2.39l-.15.31v2l7.49.54.42-.63s3.5.64,4.65.76a43.16,43.16,0,0,0,7.1,0c1.11-.14,3.72-.38,4.23-1.38.07-.15-.06-.21-.17-.35a2.85,2.85,0,0,0-.91-.82c-1-.45-3.44-.55-4.45-1a33.83,33.83,0,0,1-5.15-2.9c-.71-.5-2.68-2.4-2.68-2.4l-.46.13-.43-1.1Z"/><path class="cls-8" d="M130.09,108.92l4.3.44s12.16,17.35,15,22.81a15.89,15.89,0,0,1,1.17,5.06c.08,2.08-1.3,8.21-1.3,8.21s-.83,10.75-3,14.8c-1.87,3.4-3.48,2.74-3.17,2.86a11.53,11.53,0,0,1,1.34.7,12.19,12.19,0,0,1,.1,2.63c-.46,1.21-3.43,1.11-4.72,1.25-1.95.23-7.59.06-8.63-1.62s2.13-5.12,2.57-7.17c1.19-5.55,3.08-19,3.08-19l-11-13.63,4.36-16.67Z"/><path class="cls-7" d="M89.5,164.26a12.08,12.08,0,0,0-1.41,3.2c-.12.66-.19,2.39-.19,2.39l-.14.31v2l7.5.54.41-.63s3.5.64,4.66.76a43,43,0,0,0,7.09,0c1.11-.14,3.73-.38,4.23-1.38.08-.15-.06-.21-.16-.35a2.88,2.88,0,0,0-.92-.82c-1-.45-3.43-.55-4.45-1a33.73,33.73,0,0,1-5.14-2.9c-.72-.5-2.68-2.4-2.68-2.4l-.46.13-.44-1.1Z"/><path class="cls-9" d="M113.64,100.38s-3.15,5.07-3.15,7.1c0,7.86,1.66,27.21,1.63,28,0,.51-9.23,8.26-12.13,13.28-.29.52-.39,2-.77,2.47-1,1.21-1.42,1.82-2.37,3.09a17.87,17.87,0,0,1-2.55,2.22c-1.61,1.25-1.64,2.21-2.2,2.86-.42.48-1.72,1.17-2.06,1.58-1.41,1.66-.89,2.59-.89,2.59s2.33,4.24,9.88,4.23a4.9,4.9,0,0,0,3.46-.92c1.12-.75,1.28-2.49,1.43-2.61s.86,0,1-.19c.67-.67-.53-3.34.45-4.28,1.87-1.79,1.72-.2,3.53-2.31.28-.33,1.51-.23,2.28-.73,4.14-2.73,8.21-7.81,10.79-10.22,2.37-2.22,4.7-4.53,5.2-7.72.93-5.86,4.62-29.88,4.62-29.88Z"/><path class="cls-8" d="M115.14,104.49a16.79,16.79,0,0,0,4.31,2.15,59.75,59.75,0,0,1,6.84,2.77c1.39.77,5.31,2.08,4.54,6.54S133.6,114,133.6,114c.3-1.15.3-3.38-.16-3.61s-7.53-2.23-8.53-2.84-7.08-3.85-7.92-4.16-2.23-1.69-2.54-1.53-1.38-.93-.92-.08S115.14,104.49,115.14,104.49Z"/><path class="cls-8" d="M119.35,149.25a1.77,1.77,0,0,0-.17.14,41.63,41.63,0,0,1-5.94,4.5c-3.5,2.35-8.36-1.42-10.28-2.56s-3.06-2.05-3-2.5v0c-.27.56-.37,1.94-.74,2.4s-.8,1-1.13,1.44c.46.41,1,.87,1.6,1.45a26.44,26.44,0,0,0,7.56,4.63c.41-.09.82-.25,1.69-1.26.28-.33,1.51-.23,2.28-.73A50.69,50.69,0,0,0,119.35,149.25Z"/><path class="cls-8" d="M103.92,164.25c.16-.12.86,0,1-.19.56-.56-.19-2.53.14-3.7-1.17-.86-6.86-3.38-6.91-3.76s-1.39-.78-2.51-1.17c-.48.4-1,.79-1.38,1.09l-.4.34a.65.65,0,0,0,.2-.09c.63-.34,1.58.52,2.56,1.21s6.14,4.36,6.49,4.91.32,1.47-2.88,1c-.77-.11,2.3.63,3.43,1A3.72,3.72,0,0,1,103.92,164.25Z"/><path class="cls-8" d="M128.41,105.47a11.38,11.38,0,0,1-4.51,5c-1.21.71-5.58.69-5.58.69l2.2-9.46Z"/><polygon class="cls-10" points="163.9 85.01 164.2 88.11 162.4 91.81 160.68 87.27 163.9 85.01"/><path class="cls-11" d="M159.24,78.16l8.14-2.81,3.79,11.11s-2-.86-2.76-.6c-.43.15-1,1.24-1.47,1.31-2.25.33-5.47.15-6.18,4.13C160.31,93.87,159.24,78.16,159.24,78.16Z"/><path class="cls-12" d="M184.27,70.9a28,28,0,0,1-1.58,5.27c-.35.57-1.45,1.55-1.64,2.19-.34,1.11.57,3.31.38,4.06-.1.41-.28.63-1.23.55-.3,0-1.16-.21-1.16-.21a2.47,2.47,0,0,0-.3.65c-.08.3-.07.67-.21.73s-.82-.4-1.32-.68a4.63,4.63,0,0,0-1.13-.46,4,4,0,0,1,1.39,1.85c.1.39-.73,0-1.44.81-.47.55-.44,1.52-1,2a2.31,2.31,0,0,1-1.9.37c-2.23-1-5.4-5.25-5.85-7.64-.56-3,.38-4,.38-4l4.6-7.48,5-3Z"/><path class="cls-13" d="M170,71.52a3,3,0,0,1,.07,1.41c-.29.66.81,1.12,1.14.5a4.87,4.87,0,0,1,1.6-2,13,13,0,0,1,1.75-.25s1.68-4.11,5.6-1.8c1.7,1,2.05,2.13,3.52,3.2a2.12,2.12,0,0,1,.89,1.85,22.12,22.12,0,0,0,2.08-3.23c1.15-3.12-1-7.15-6.31-10.46A11.77,11.77,0,0,0,173,58.9c-3.71.28-4.86,2.43-4.86,2.43a7.76,7.76,0,0,0-4.89,3.21c-1.36,1.87-1.1,4.39-.72,6.51a11.06,11.06,0,0,1-.08,4.71c-.38,1.61-1.71,1.2-1.71,1.2a4.93,4.93,0,0,0,3.54.34A10.12,10.12,0,0,0,170,71.52Z"/><path class="cls-11" d="M176.49,74.4c.5-.4,1.43-.11,2-.15a4.7,4.7,0,0,1,3.09,1.38c.21.18-1.55,2.38-2,2-1-.82-2.45-.65-3.16-.88A1.42,1.42,0,0,1,176.49,74.4Z"/><path class="cls-6" d="M179.16,77.3a1.48,1.48,0,0,0-2.31-.76c-.17.11-.45.34,1.11,1.85A.83.83,0,0,0,179.16,77.3Z"/><path class="cls-12" d="M179.13,77.46c.3.28.4.46.35.68a1.27,1.27,0,0,0,.6-1.37c-.22-1.1-3.47-.54-4-.27-.28.16.14,0,.17.31C177.64,76.81,178.42,76.78,179.13,77.46Z"/><path class="cls-14" d="M179,78.36a.74.74,0,0,1-1,.09.78.78,0,0,1,.2-1,.76.76,0,0,1,1,0C179.46,77.65,179.35,78.07,179,78.36Z"/><path class="cls-15" d="M178.8,78.12a.31.31,0,0,1-.42,0c-.09-.11,0-.29.11-.41s.34-.15.42,0S179,78,178.8,78.12Z"/><path class="cls-16" d="M176.55,74.45c-.12,0,0-.14.15-.23.54-.44,1.62-.66,3.26,0,.72.28,2.22,1,2.07,1.61-.06.25-.59.31-.84.26-.53-.11-1.33-.93-1.82-1.17A6.22,6.22,0,0,0,176.55,74.45Z"/><path class="cls-12" d="M165.71,73.41c-.05,2.21,1.1,4,2.58,4.06s.27-2,1.41-3.92c2-3.28.25-4-1.23-4.08S165.76,71.2,165.71,73.41Z"/><path class="cls-11" d="M167.64,72.91c-.36.82-.22,1.68.33,1.93s.69-.68,1.06-1.49.8-1.24.26-1.48S168,72.1,167.64,72.91Z"/><path class="cls-17" d="M161.57,78.41a25,25,0,0,0-3.11-1.33c-3.32-.8-10.77-1.17-14.11-.43-3.61.8-9.46,4.55-12.52,6.64-5,3.39-16.24,9.84-18.42,15.44-.15.39.66.61.66.61s0,2.92.55,3.47c1.75,1.85,7,3.34,9.28,4.46s7.89,4,9.38,3.87c.76-.07,1.9-1.21,2.76-1.31.46-.06,1.55-.06,2-.14,1.19-.21,3.56-3.18,6.62-5.62a24.84,24.84,0,0,1,6.48-4c8.17-3.59,10.19-8.8,10.19-8.8l1.4-3.21Z"/><path class="cls-17" d="M161.34,91.25l1.4-3.21-.06-.49a15,15,0,0,1-1.12-1.13c-.46-.63-2.24-7-2.76-3.23s-1.16,4.62-3,5.08-2.25-.64-2.14-2-.11.57-.34-1.62-1.73-.92-3.12-.11S136.83,87.23,134.29,88s-10,3.57-11.65,4.15a24.41,24.41,0,0,1-2.71,2.19c-1.44,1-4,2.48-5.25,3.17a6.68,6.68,0,0,0-1,.67c-.08.17-.16.34-.23.51-.15.39.66.61.66.61s0,2.92.55,3.47c1.75,1.85,7,3.34,9.28,4.46s7.89,4,9.38,3.87c.76-.07,1.9-1.21,2.76-1.31.46-.06,1.55-.06,2-.14,1.19-.21,3.56-3.18,6.62-5.62a24.84,24.84,0,0,1,6.48-4C159.32,96.46,161.34,91.25,161.34,91.25Z"/><path class="cls-18" d="M113.2,101.11c.31.77.71,2.46,7,5s10.9,5.36,12.92,5.31c1.13,0,2.34-1.42,2.34-1.42a58.29,58.29,0,0,1-13.11-4.58c-6.38-3.23-8.08-5.36-8.16-5.82,0-.09-.24,0-.24,0Z"/><path class="cls-19" d="M137.06,94.88l1.07,1.54s6.31-4.16,8.85-4.31,1.53-3.54,1.23-4S136.44,83.35,134,84.5s-11.38,6-14.22,7.69a30.91,30.91,0,0,0-4.34,3.42,11.17,11.17,0,0,0-2,3.12c-.15.39.66.61.66.61v.23l-.1.05-.77,1.49h0c-.81,1.39-2.49,4.42-2.69,6.07h0c.23-2.08,4.08-2,5.61-2.77s11.07-5.53,14.15-7.84A63.94,63.94,0,0,1,137.06,94.88Z"/><path class="cls-18" d="M158.57,77.08s.32,3.7.3,5.1c0,2-.63,8.1-.63,8.1l5.66-2.62-1.68-11.18Z"/><path class="cls-12" d="M136.05,81.85s-5.9,3.48-8.1,4c-1,.23-2.86.37-3.82.69-4.8,1.61-16.37,11.52-16.37,11.52a11.88,11.88,0,0,0-2.33,0c-1,.28-3.1,2.32-3.1,2.32l-.69.89-1.8-.09-1.37-.8A5,5,0,0,0,98,98.73c-.28-.28-.93,0-.93,0v2.54l.68.82.94.33L97,101.27a2.07,2.07,0,0,0-.72-1.66c-.42-.27-1,.1-1,.1l.48,2.31,1.66,1.84h4.38l6.52-2.25,1.55-.34,2.6-1.15,11.94-4c5.47-1.85,5.54-3.18,6.51-3.28,2.88-.3,7.77-1.16,7.77-1.16Z"/><path class="cls-18" d="M133.69,82.3s2.27,6.27,3.16,8.28c.43,1,1.69,3.7,1.69,3.7s4.54-2.17,6-2.37c1.08-.14,3.25.52,4.25.1,1.84-.77,5-2.7,4.87-5.92,0-1.39-.3-3.45-1.15-4.54-1.88-2.39-5.41-2.49-7.47-2.4C142.12,79.29,133.69,82.3,133.69,82.3Z"/><path class="cls-8" d="M92.38,161.06c1,1,4.76,2.74,6.51,3.24a14.74,14.74,0,0,0,4.77.74l.26-.79a28.59,28.59,0,0,1-5.61-.79C94.08,162.23,91.55,160.18,92.38,161.06Z"/><path class="cls-8" d="M132.88,163.55c1.22.57,5,.85,6.68.79,4.56-.16,4.78-.54,4.78-.54a11.08,11.08,0,0,0-1.38-.72c-.26.09-3.94.29-5.27.34S132.46,163.35,132.88,163.55Z"/><path class="cls-20" d="M179.4,78.19l-.08,0a.17.17,0,0,1-.07-.23s0,0,0-.1-.54-.6-2.42-1a.19.19,0,0,1-.13-.21.17.17,0,0,1,.2-.13c1.56.34,2.46.76,2.68,1.23a.42.42,0,0,1,0,.38A.16.16,0,0,1,179.4,78.19Z"/><path class="cls-21" d="M82.66,93.18a1.05,1.05,0,0,1-1.06-1.05V82.88a1.06,1.06,0,0,1,2.11,0v9.25A1,1,0,0,1,82.66,93.18Z"/><path class="cls-21" d="M82.66,107.05A1.05,1.05,0,0,1,81.6,106V96.75a1.06,1.06,0,0,1,2.11,0V106A1.05,1.05,0,0,1,82.66,107.05Z"/><path class="cls-21" d="M82.66,120.75a1.05,1.05,0,0,1-1.06-1v-9.25a1.06,1.06,0,0,1,2.11,0v9.25A1,1,0,0,1,82.66,120.75Z"/><path class="cls-21" d="M82.66,134.62a1.05,1.05,0,0,1-1.06-1.06v-9.24a1.06,1.06,0,0,1,2.11,0v9.24A1.05,1.05,0,0,1,82.66,134.62Z"/><path class="cls-21" d="M100.78,156.65a1,1,0,0,1-.65-.22l-7.68-6a1,1,0,0,1-.19-1.47,1.05,1.05,0,0,1,1.48-.18l7.69,6a1.05,1.05,0,0,1,.18,1.48A1.07,1.07,0,0,1,100.78,156.65Z"/><path class="cls-21" d="M89.21,146.89a1,1,0,0,1-.88-.47l-5.12-7.71A1.05,1.05,0,0,1,85,137.55l5.12,7.71a1,1,0,0,1-.3,1.46A1,1,0,0,1,89.21,146.89Z"/><rect class="cls-22" x="98.49" y="150.03" width="7.67" height="13.3" transform="translate(-84.49 145.71) rotate(-53.49)"/><path class="cls-11" d="M181.39,82.57l0,0c-.29.4-1.53-.12-2.25-.49s-.37.57-.08.66c0,0,.86.19,1.16.21C181,83,181.27,82.88,181.39,82.57Z"/><polygon class="cls-23" points="98.8 158.82 96.07 156.75 100.6 150.63 103.35 152.66 98.8 158.82"/><path class="cls-19" d="M162.12,76.81s0-.13,0-.32l-3.58.59v0l-.11,0a47.16,47.16,0,0,0-12-.72c3.51.19,11.61,1.47,12.16,2.22C158.59,78.58,161.35,76.73,162.12,76.81Z"/><path class="cls-24" d="M172.41,38.19a1.55,1.55,0,0,1-2.12-.54L166.37,31a1.55,1.55,0,0,1,.54-2.12h0a1.55,1.55,0,0,1,2.12.55L173,36.07a1.55,1.55,0,0,1-.54,2.12Z"/><path class="cls-24" d="M165.65,26.94a1.64,1.64,0,1,1,.58-2.24A1.63,1.63,0,0,1,165.65,26.94Z"/><path class="cls-9" d="M134.87,137.58l1.87,2.31A8.19,8.19,0,0,0,134.87,137.58Z"/><path class="cls-9" d="M139.48,141.24a2,2,0,0,0,0-.23Z"/><path class="cls-9" d="M136.74,139.89l-.17-.21Z"/><g class="cls-25"><path class="cls-26" d="M93.41,72.58h0a4,4,0,0,1,2.06,7.5,4,4,0,0,1-2,.56,4,4,0,0,1-3.91-5,4,4,0,0,1,3.9-3Zm0-1.39a5.42,5.42,0,1,0,4.67,2.66,5.44,5.44,0,0,0-4.67-2.66Z"/></g><path class="cls-13" d="M182,66.72c1.13,1.83,2.81,1,2.43,2.86s-2.14,3.65-3.07,3.69a3.17,3.17,0,0,0-1.44-4c-1.5-1-1.14-4.18-.8-4.16A24.92,24.92,0,0,1,182,66.72Z"/><circle class="cls-5" cx="154.76" cy="51.64" r="5.23"/><circle class="cls-27" cx="154.76" cy="51.64" r="6.68"/><circle class="cls-28" cx="157.57" cy="56.81" r="0.32"/><circle class="cls-28" cx="151.96" cy="46.47" r="0.32"/><path class="cls-6" d="M156,51.46l.41-.22a.25.25,0,0,1,.37.09l.31.58.88-.48-.43-.79a1.14,1.14,0,0,0-1.66-.5l-.46.25-.28-.51-1,.56.28.51-2.56,1.4.55,1L155,52l.41.76,1.08-.46Z"/><circle class="cls-5" cx="143.68" cy="31.07" r="5.23"/><circle class="cls-27" cx="143.68" cy="31.07" r="6.68"/><circle class="cls-28" cx="146.48" cy="36.24" r="0.32"/><circle class="cls-28" cx="140.87" cy="25.9" r="0.32"/><path class="cls-6" d="M145.3,33.73a3.05,3.05,0,0,0-2.86-5.39l-.12.06a2.91,2.91,0,0,0-1.14,1.09l0,0-1.66.29a0,0,0,0,0,0,.05l1.26,1.21s0,0,0,0a3.31,3.31,0,0,0,.37,1.44,3.07,3.07,0,0,0,4.13,1.24S145.3,33.73,145.3,33.73Zm-3.7-3.81a2.4,2.4,0,0,1,1-1l.21-.1a2.48,2.48,0,0,1,2.32,4.36l-.17.1a2.46,2.46,0,0,1-3.34-1,2.36,2.36,0,0,1-.3-1,2,2,0,0,1,0-.36.05.05,0,0,0,0,0l-.63-.61s0,0,0,0l.83-.14s0,0,0,0Z"/><path class="cls-6" d="M143.88,32.68a.59.59,0,0,0,0-.18c0-.06,0-.48,0-.56s0-.14-.13-.15a3,3,0,0,1-.36-.06.1.1,0,0,1-.08-.11,2.7,2.7,0,0,1,0-.69,2.33,2.33,0,0,1,.24-.6s.07,0,.12,0l.22.05h.1a.18.18,0,0,0,.13-.08l.37-.46c.09-.11.06-.17,0-.22s-.14-.25-.26-.28h0a.79.79,0,0,0-.65.07,1,1,0,0,0-.21.16,1.55,1.55,0,0,0-.32.48,3.13,3.13,0,0,0-.2.43,2.69,2.69,0,0,0-.18,1.21,2.22,2.22,0,0,0,.17.74s.09.12.1.14a.77.77,0,0,0,.57.28A.6.6,0,0,0,143.88,32.68Z"/><circle class="cls-5" cx="129.45" cy="51.07" r="5.23"/><circle class="cls-27" cx="129.45" cy="51.07" r="6.68"/><circle class="cls-28" cx="132.25" cy="56.24" r="0.32"/><circle class="cls-28" cx="126.65" cy="45.9" r="0.32"/><path class="cls-6" d="M132.24,52.69a2.69,2.69,0,0,1-.43-.46,1.1,1.1,0,0,0,.75.15s0,0,0,0a2.24,2.24,0,0,1-.54-.48,1.17,1.17,0,0,0-.09-.91,1.15,1.15,0,0,0-1.54-.47l-.21.15a3.24,3.24,0,0,1-.09-2.62s0,0,0,0a1,1,0,0,0-.56.13,1.11,1.11,0,0,0-.58.87s0,0,0,0a1,1,0,0,1-.11-.49h0a1.21,1.21,0,0,0-.33.26,1.15,1.15,0,0,0-.21,1.07,1.08,1.08,0,0,1-.18-.24,1.54,1.54,0,0,1-.08-.19s0,0,0,0a1.13,1.13,0,0,0-.18,1.28s0,0,0,0a2.25,2.25,0,0,1-1.08-1,1.15,1.15,0,0,1-.12-.25,3.28,3.28,0,0,0,.39,1.79,3.19,3.19,0,0,0,1.7,1.51,3.32,3.32,0,0,0,2,.08,2.7,2.7,0,0,0,.63-.26l.13-.07a2.31,2.31,0,0,0,.72.22S132.25,52.7,132.24,52.69Z"/><circle class="cls-5" cx="138.42" cy="65.44" r="5.23"/><circle class="cls-27" cx="138.42" cy="65.44" r="6.68"/><circle class="cls-28" cx="141.22" cy="70.61" r="0.32"/><circle class="cls-28" cx="135.61" cy="60.27" r="0.32"/><path class="cls-29" d="M135.92,65.35Zm5.16.09Z"/><path class="cls-6" d="M137,66.2a1.58,1.58,0,0,0,2.78-1.51A1.58,1.58,0,1,0,137,66.2Zm.81-1.81a1.2,1.2,0,1,1-.48,1.62A1.21,1.21,0,0,1,137.84,64.39Z"/><path class="cls-6" d="M136.86,68.08l-1.5-2.77a1.07,1.07,0,0,1,.43-1.46l2.73-1.48a1.06,1.06,0,0,1,1.45.44l1.51,2.77A1.07,1.07,0,0,1,141,67l-2.73,1.48A1.06,1.06,0,0,1,136.86,68.08ZM139.63,63a.69.69,0,0,0-.93-.27L136,64.2a.68.68,0,0,0-.27.92l1.5,2.77a.68.68,0,0,0,.93.28l2.73-1.48a.69.69,0,0,0,.27-.93Z"/><circle class="cls-5" cx="105.45" cy="60.43" r="5.23"/><circle class="cls-27" cx="105.45" cy="60.43" r="6.68"/><circle class="cls-28" cx="108.25" cy="65.6" r="0.32"/><circle class="cls-28" cx="102.65" cy="55.26" r="0.32"/><path class="cls-6" d="M108.19,58.94a3.12,3.12,0,1,0-1.25,4.23A3.11,3.11,0,0,0,108.19,58.94Zm-3.28,0a.38.38,0,1,1,.36.67.37.37,0,0,1-.51-.16A.38.38,0,0,1,104.91,58.93Zm-1,2.31a1,1,0,0,1,.29-1.27l.93,1.73A1,1,0,0,1,104,61.24Zm2,.31a.38.38,0,1,1,.67-.37.38.38,0,0,1-.67.37Z"/><circle class="cls-5" cx="119.19" cy="73.09" r="5.23"/><circle class="cls-27" cx="119.19" cy="73.09" r="6.68"/><circle class="cls-28" cx="121.99" cy="78.26" r="0.32"/><circle class="cls-28" cx="116.39" cy="67.92" r="0.32"/><path class="cls-6" d="M120.22,73l1.11-.6a.22.22,0,0,0,.09-.3.84.84,0,0,0-1.15-.34l-.54.29-.66-1.23-.11-.2a.46.46,0,0,0-.86.22.44.44,0,0,0-.47,0,.46.46,0,0,0-.24.4.46.46,0,0,0-.47,0,.46.46,0,0,0-.23.46.45.45,0,0,0-.52,0,.46.46,0,0,0-.18.62l.11.2,1,1.82.09.16a.86.86,0,0,0,1.17.35L119.8,74A.87.87,0,0,0,120.22,73Z"/><rect class="cls-6" x="118.19" y="74.61" width="2.69" height="1.29" rx="0.32" transform="translate(-21.42 66.08) rotate(-28.47)"/></g></g></svg>